<svg width="64" height="64" viewBox="0 0 64 64" fill="none" xmlns="http://www.w3.org/2000/svg">
<path d="M58 43H14.33C15.33 41.0425 16.375 38.9725 17.3825 36.86C21.1675 37.7475 25.915 34.845 31.5175 28.2125C32.435 31.3375 34.65 36.92 38.7875 37H38.875C41.0525 37 43.285 35.4375 45.665 32.235C46.7925 34.285 49.8275 37 58 37C58.2652 37 58.5196 36.8946 58.7071 36.7071C58.8946 36.5196 59 36.2652 59 36C59 35.7348 58.8946 35.4804 58.7071 35.2929C58.5196 35.1054 58.2652 35 58 35C47.28 35 47 30.19 47 30C46.9997 29.7847 46.9299 29.5752 46.8009 29.4027C46.672 29.2302 46.4908 29.104 46.2844 29.0427C46.0779 28.9815 45.8572 28.9885 45.6551 29.0628C45.4529 29.1371 45.2802 29.2746 45.1625 29.455C42.185 34.025 40.105 35 38.87 35H38.825C35.575 34.9375 33.5025 28.37 32.98 25.8475C32.9401 25.6639 32.8493 25.4952 32.718 25.3608C32.5867 25.2264 32.4201 25.1317 32.2375 25.0876C32.0548 25.0435 31.8634 25.0518 31.6852 25.1114C31.507 25.1711 31.3493 25.2798 31.23 25.425C25.995 31.9925 21.465 35.3125 18.28 34.975C24.3275 21.875 26.2975 13.29 24.1225 9.4425C23.5 8.3275 22.175 7 19.4775 7C16.0225 7 13.135 10.6025 11.75 16.635C10.8827 20.4468 10.7521 24.3892 11.365 28.25C12.025 32.0725 13.4625 34.7625 15.5375 36.0875C14.3925 38.4875 13.2125 40.8375 12.0775 43.0075H6C5.73478 43.0075 5.48043 43.1129 5.29289 43.3004C5.10536 43.4879 5 43.7423 5 44.0075C5 44.2727 5.10536 44.5271 5.29289 44.7146C5.48043 44.9021 5.73478 45.0075 6 45.0075H11.025C7.8075 51.05 5.1825 55.4275 5.1425 55.4925C5.07483 55.6051 5.03002 55.7299 5.01061 55.8599C4.9912 55.9898 4.99758 56.1223 5.02939 56.2497C5.06119 56.3772 5.1178 56.4971 5.19598 56.6027C5.27415 56.7083 5.37236 56.7974 5.485 56.865C5.64097 56.9565 5.81918 57.0033 6 57C6.17264 57.0001 6.34235 56.9554 6.49262 56.8704C6.64288 56.7854 6.76859 56.663 6.8575 56.515C6.8975 56.4475 9.82 51.5775 13.2875 45H58C58.2652 45 58.5196 44.8946 58.7071 44.7071C58.8946 44.5196 59 44.2652 59 44C59 43.7348 58.8946 43.4804 58.7071 43.2929C58.5196 43.1054 58.2652 43 58 43ZM13.335 27.9025C12.7713 24.304 12.8977 20.6312 13.7075 17.08C14.6 13.175 16.585 9 19.4775 9C21.3575 9 22.035 9.815 22.38 10.425C24.75 14.6 19.98 26.5 16.4 34.25C14.94 33.1725 13.865 30.9575 13.335 27.9025Z" fill="#1A2856"/>
</svg>
